<!DOCTYPE svg PUBLIC "-//W3C//DTD SVG 1.1//EN" "http://www.w3.org/Graphics/SVG/1.1/DTD/svg11.dtd">
<!-- Uploaded to: SVG Repo, www.svgrepo.com, Transformed by: SVG Repo Mixer Tools -->
<svg fill="#52AEBA" width="223px" height="223px" viewBox="-0.96 -0.96 25.92 25.92" xmlns="http://www.w3.org/2000/svg" stroke="#52AEBA" stroke-width="0.00024000000000000003">
<g id="SVGRepo_bgCarrier" stroke-width="0"/>
<g id="SVGRepo_tracerCarrier" stroke-linecap="round" stroke-linejoin="round"/>
<g id="SVGRepo_iconCarrier">
<path d="M22,4.5a1,1,0,0,1-1,1H12a1,1,0,0,1,0-2h9A1,1,0,0,1,22,4.5Zm-1,4H14a1,1,0,0,0,0,2h7a1,1,0,0,0,0-2Zm0,5H16a1,1,0,0,0,0,2h5a1,1,0,0,0,0-2Zm0,5H18a1,1,0,0,0,0,2h3a1,1,0,0,0,0-2ZM6,2A1,1,0,0,0,5,3V18.586L3.707,17.293a1,1,0,0,0-1.414,1.414l3,3a1,1,0,0,0,1.416,0l3-3a1,1,0,0,0-1.414-1.414L7,18.586V3A1,1,0,0,0,6,2Z"/>
</g>
</svg>